<svg width="164" height="50" viewBox="0 0 164 50" fill="none" xmlns="http://www.w3.org/2000/svg">
<path d="M38.619 30.2782H38.6156L36.2986 27.9578H36.2953L33.1637 24.823L30.9331 27.0469L33.4164 29.5302L35.7368 31.8506L38.9946 35.1084L34.7461 39.3569L31.5947 36.2055L29.2743 33.8851L24.4573 29.0681L22.2267 31.2921L27.7019 36.7639L34.7461 43.8082L43.4492 35.1084L38.619 30.2782ZM21.1397 12.7989L18.816 10.4752L13.6533 5.3125L4.9502 14.0156L17.9982 27.0636L20.2255 24.8363L15.2091 19.8199L12.8854 17.4962L9.40479 14.0156L13.6533 9.76709L17.2402 13.354L19.5639 15.6777L24.474 20.5878L26.6979 18.3605L21.1397 12.7989Z" fill="#4BF0A5"/>
<path d="M35.4737 5.10278L30.2146 10.3619L27.8942 12.6822L24.4569 16.1196L26.6875 18.3469L29.4699 15.5611L35.4737 9.55738L39.7222 13.8059L28.7053 24.8227L30.936 27.05L36.6505 21.3321L38.9709 19.0118L44.1767 13.8059L35.4737 5.10278ZM19.7563 33.7684L17.4359 36.0888L14.3808 39.1472L10.1323 34.8987L17.9844 27.0466L15.7571 24.8227L12.6854 27.8944L10.365 30.2147L5.67773 34.8987L14.3808 43.6018L19.0116 38.971L21.332 36.6506L24.4569 33.5224L22.2329 31.2985L19.7563 33.7684Z" fill="#4BF0A5"/>
<path d="M38.9711 19.0118L36.0922 17.4361L33.2266 15.867L31.7905 13.2408L30.2148 10.3619L24.5468 0L18.8157 10.475L17.2399 13.3538L15.867 15.867L12.8851 17.4959L10.0062 19.0717L0 24.5468L10.3652 30.2148L13.2441 31.7872L15.867 33.2233L17.4361 36.0889L19.0118 38.9711L24.5468 49.0936L30.022 39.0841L31.5944 36.2052L33.2266 33.2233L35.7365 31.8504L38.6154 30.278H38.6187L49.0936 24.5468L38.9711 19.0118ZM36.2983 27.9576H36.295L33.4161 29.53L30.9063 30.9029L29.274 33.8848L27.7016 36.7637L24.5468 42.5281L21.3322 36.6507L19.7565 33.7685L18.1907 30.9029L15.5645 29.4668L12.6856 27.8944L6.56554 24.5468L12.3299 21.3954L15.2088 19.8196L18.1907 18.1874L19.5637 15.6775L21.1394 12.7987L24.5468 6.56222L27.8944 12.6823L29.4701 15.5612L30.9063 18.1874L33.7718 19.7565L36.6507 21.3322L42.5281 24.5468L36.2983 27.9576Z" fill="#4BF0A5"/>
<path d="M27.6991 36.7637L24.5476 42.5281L21.333 36.6473L24.4579 33.5225L27.6991 36.7637Z" fill="#E86B35"/>
<path d="M42.5281 24.5469L36.295 27.9543L33.1602 24.8228L36.6507 21.3323L42.5281 24.5469Z" fill="#E86B35"/>
<path d="M15.7572 24.8231L12.6822 27.8915L6.56543 24.5472L12.3298 21.3958L15.7572 24.8231Z" fill="#E86B35"/>
<path d="M27.8957 12.6823L24.4583 16.1197L21.1406 12.7987L24.5481 6.56226L27.8957 12.6823Z" fill="#E86B35"/>
<path d="M59.6697 38.0007V26.9427H71.8587V22.754H59.6697V14.1254H74.4137V9.93677H54.9365V38.0007H59.6697Z" fill="#4BF0A5"/>
<path d="M80.5145 38.4196C84.7869 38.4196 86.7555 35.2362 87.3838 32.5555V34.0634C87.3838 36.9955 89.1012 38.0007 91.2793 38.0007H94.1695V33.9796H92.871C92.117 33.9796 91.7819 33.6864 91.7819 32.7649V25.0997C91.7819 20.0733 88.9336 17.1831 83.8654 17.1831C79.3416 17.1831 76.1583 19.5288 74.5666 21.7069L77.373 25.0578C78.5458 22.9216 80.682 21.3299 83.4046 21.3299C86.211 21.3299 87.1325 22.7122 87.3001 24.7646L80.4726 27.6548C77.1635 28.9532 75.153 30.7125 75.153 33.6026C75.153 36.5347 77.1635 38.4196 80.5145 38.4196ZM79.6767 32.8906C79.6767 31.8434 80.3888 31.1313 82.148 30.3355L87.3838 27.9899V30.1679C87.3838 32.9325 85.2895 34.7755 82.1899 34.7755C80.4726 34.7755 79.6767 34.0634 79.6767 32.8906Z" fill="#4BF0A5"/>
<path d="M101.164 44.9958C104.473 44.9958 106.86 43.5297 108.326 39.4249L115.866 17.602H110.672L107.028 29.1627L105.562 34.6079L104.096 29.1627L100.41 17.602H95.2575L102.001 36.7441H104.891L104.514 37.8751C103.76 40.1369 102.755 40.849 101.164 40.849C99.2786 40.849 98.022 39.6762 96.933 38.1264L94.713 41.8962C95.8439 43.4879 98.2315 44.9958 101.164 44.9958Z" fill="#4BF0A5"/>
<path d="M126.219 38.4196C130.534 38.4196 133.927 36.409 133.927 32.3879C133.927 29.4559 132.251 27.6129 127.686 26.4401L125.214 25.8118C122.45 25.0997 121.361 24.5552 121.361 23.0891C121.361 21.7069 122.575 20.9529 124.376 20.9529C127.015 20.9529 129.193 22.2933 130.618 24.5552L133.382 21.6231C132.125 19.3193 129.068 17.225 124.712 17.225C120.02 17.225 116.963 19.5288 116.963 23.3404C116.963 27.0683 119.937 28.4925 123.162 29.2464L125.884 29.9166C128.146 30.4612 129.696 30.9638 129.696 32.4717C129.696 33.9377 128.398 34.6498 126.387 34.6498C122.743 34.6498 120.23 32.5555 119.099 30.503L116.334 33.4351C117.884 36.6604 121.863 38.4196 126.219 38.4196Z" fill="#4BF0A5"/>
<path d="M142.035 38.4196C146.308 38.4196 148.276 35.2362 148.905 32.5555V34.0634C148.905 36.9955 150.622 38.0007 152.8 38.0007H155.69V33.9796H154.392C153.638 33.9796 153.303 33.6864 153.303 32.7649V25.0997C153.303 20.0733 150.454 17.1831 145.386 17.1831C140.862 17.1831 137.679 19.5288 136.087 21.7069L138.894 25.0578C140.067 22.9216 142.203 21.3299 144.925 21.3299C147.732 21.3299 148.653 22.7122 148.821 24.7646L141.993 27.6548C138.684 28.9532 136.674 30.7125 136.674 33.6026C136.674 36.5347 138.684 38.4196 142.035 38.4196ZM141.198 32.8906C141.198 31.8434 141.91 31.1313 143.669 30.3355L148.905 27.9899V30.1679C148.905 32.9325 146.81 34.7755 143.711 34.7755C141.993 34.7755 141.198 34.0634 141.198 32.8906Z" fill="#4BF0A5"/>
<path d="M163.969 38.0007V9.93677H159.278V38.0007H163.969Z" fill="#4BF0A5"/>
</svg>
